<svg width="80" height="80" viewBox="0 0 80 80" fill="none" xmlns="http://www.w3.org/2000/svg">
<path d="M40 70C56.5685 70 70 56.5685 70 40C70 23.4315 56.5685 10 40 10C23.4315 10 10 23.4315 10 40C10 56.5685 23.4315 70 40 70Z" fill="#9C6FE2"/>
<path d="M23.29 51.6101L10.38 53.7901L48.38 54.7201L61.29 52.5401L23.29 51.6101Z" fill="#E0DEE9" stroke="#010101" stroke-width="0.25"/>
<path d="M62.14 50.49L62.79 24.09L61.95 24.48L61.29 51.09L62.14 50.49Z" fill="#E0DEE9" stroke="#010101" stroke-width="0.25"/>
<path d="M23.26 50.1501L23.91 23.55L61.91 24.48L61.25 51.09L23.26 50.1501Z" fill="#E0DEE9" stroke="#010101" stroke-width="0.25"/>
<path d="M23.26 50.1501V51.6101L61.26 52.5401V51.0901L23.26 50.1501Z" fill="#E0DEE9" stroke="#010101" stroke-width="0.25"/>
<path d="M61.26 52.5401L48.42 54.7201V53.2701L61.26 51.0901V52.5401Z" fill="#E0DEE9" stroke="#010101" stroke-width="0.25"/>
<path d="M61.29 51.09V52.54C62.21 52.48 62.15 51.21 62.17 50.54L61.29 51.09Z" fill="#E0DEE9" stroke="#010101" stroke-width="0.25"/>
<path d="M24.74 23.15L23.91 23.55L62 24.48L62.82 24.09L24.74 23.15Z" fill="#E0DEE9" stroke="#010101" stroke-width="0.25"/>
<path d="M59.81 52.2699L54 53.2999V52.9199L59.85 51.9199L59.81 52.2699Z" fill="#AA9A85" stroke="#010101" stroke-width="0.25"/>
<path d="M42.49 25.1801C42.6226 25.1801 42.73 25.0726 42.73 24.9401C42.73 24.8075 42.6226 24.7001 42.49 24.7001C42.3575 24.7001 42.25 24.8075 42.25 24.9401C42.25 25.0726 42.3575 25.1801 42.49 25.1801Z" fill="#E0DEE9" stroke="#010101" stroke-width="0.25"/>
<path d="M10.31 52.3301V53.7801L48.31 54.7201V53.2601L10.31 52.3301Z" fill="#E0DEE9" stroke="#010101" stroke-width="0.25"/>
<path d="M23.32 50.1501L10.32 52.3301L48.32 53.2601L61.3 51.0901L23.32 50.1501Z" fill="#E0DEE9" stroke="#010101" stroke-width="0.25"/>
<path d="M24.75 48.61L25.32 25.78C25.3213 25.7104 25.3363 25.6417 25.3641 25.5779C25.392 25.5141 25.4321 25.4564 25.4823 25.4081C25.5324 25.3598 25.5916 25.3219 25.6564 25.2965C25.7212 25.2711 25.7904 25.2587 25.86 25.26L59.92 26.1C59.9909 26.0999 60.061 26.1142 60.1262 26.1422C60.1913 26.1702 60.25 26.2112 60.2987 26.2627C60.3474 26.3142 60.3851 26.3752 60.4093 26.4418C60.4336 26.5084 60.4441 26.5792 60.44 26.65L59.88 49.48C59.8748 49.6215 59.8142 49.7552 59.7113 49.8525C59.6085 49.9497 59.4715 50.0027 59.33 50L25.27 49.16C25.1285 49.1548 24.9947 49.0942 24.8975 48.9913C24.8002 48.8885 24.7473 48.7515 24.75 48.61Z" fill="#010101"/>
<path d="M31.15 51.3901L23.21 52.0001L35.87 52.3101L43.81 51.6801L31.15 51.3901Z" fill="#A4A3A3" stroke="#010101" stroke-width="0.25"/>
<path d="M24.75 48.61L25.32 25.78C25.3213 25.7104 25.3363 25.6417 25.3641 25.5779C25.392 25.5141 25.4321 25.4564 25.4823 25.4081C25.5324 25.3598 25.5916 25.3219 25.6564 25.2965C25.7212 25.2711 25.7904 25.2587 25.86 25.26L59.92 26.1C59.9909 26.0999 60.061 26.1142 60.1262 26.1422C60.1913 26.1702 60.25 26.2112 60.2987 26.2627C60.3474 26.3142 60.3851 26.3752 60.4093 26.4418C60.4336 26.5084 60.4441 26.5792 60.44 26.65L59.88 49.48C59.8748 49.6215 59.8142 49.7552 59.7113 49.8525C59.6085 49.9497 59.4715 50.0027 59.33 50L25.27 49.16C25.1285 49.1548 24.9947 49.0942 24.8975 48.9913C24.8002 48.8885 24.7473 48.7515 24.75 48.61Z" stroke="#010101" stroke-width="0.25"/>
<path d="M62 10H63.18C64.2306 10 65.2709 10.2069 66.2415 10.609C67.2121 11.011 68.094 11.6003 68.8369 12.3431C69.5797 13.086 70.169 13.9679 70.571 14.9385C70.9731 15.9091 71.18 16.9494 71.18 18C71.18 20.1217 70.3371 22.1566 68.8369 23.6569C67.3366 25.1571 65.3017 26 63.18 26H62C59.8783 26 57.8434 25.1571 56.3431 23.6569C54.8429 22.1566 54 20.1217 54 18C54 15.8783 54.8429 13.8434 56.3431 12.3431C57.8434 10.8429 59.8783 10 62 10Z" fill="#FF6B0A"/>
<path d="M43.81 38.5H17.44V58.64H43.81V38.5Z" fill="#FF6B0A" stroke="#020202" stroke-width="0.25"/>
<path d="M21.8606 47.8317V47.1513C22.4714 47.1513 22.8975 47.0233 23.1389 46.7673C23.384 46.5112 23.5065 46.0833 23.5065 45.4834V43.7277C23.5065 43.223 23.5541 42.7859 23.6492 42.4165C23.7479 42.047 23.907 41.7416 24.1265 41.5002C24.346 41.2588 24.6386 41.0796 25.0043 40.9625C25.3701 40.8455 25.8218 40.787 26.3595 40.787V41.8623C25.9352 41.8623 25.6005 41.9282 25.3555 42.0598C25.1141 42.1915 24.9422 42.3964 24.8397 42.6743C24.741 42.9487 24.6916 43.2998 24.6916 43.7277V45.9223C24.6916 46.2076 24.6532 46.4673 24.5764 46.7014C24.5032 46.9355 24.3661 47.1367 24.1649 47.3049C23.9637 47.4732 23.6766 47.603 23.3035 47.6945C22.9341 47.7859 22.4531 47.8317 21.8606 47.8317ZM26.3595 54.8324C25.8218 54.8324 25.3701 54.7739 25.0043 54.6569C24.6386 54.5398 24.346 54.3606 24.1265 54.1192C23.907 53.8778 23.7479 53.5724 23.6492 53.2029C23.5541 52.8335 23.5065 52.3964 23.5065 51.8917V50.136C23.5065 49.5361 23.384 49.1082 23.1389 48.8521C22.8975 48.5961 22.4714 48.4681 21.8606 48.4681V47.7878C22.4531 47.7878 22.9341 47.8335 23.3035 47.9249C23.6766 48.0164 23.9637 48.1462 24.1649 48.3145C24.3661 48.4827 24.5032 48.6839 24.5764 48.918C24.6532 49.1521 24.6916 49.4118 24.6916 49.6971V51.8917C24.6916 52.3196 24.741 52.6708 24.8397 52.9451C24.9422 53.2194 25.1141 53.4224 25.3555 53.5541C25.6005 53.6894 25.9352 53.7571 26.3595 53.7571V54.8324ZM21.8606 48.4681V47.1513H23.1554V48.4681H21.8606ZM36.2585 47.7878V48.4681C35.6477 48.4681 35.2198 48.5961 34.9747 48.8521C34.7333 49.1082 34.6126 49.5361 34.6126 50.136V51.8917C34.6126 52.3964 34.5632 52.8335 34.4644 53.2029C34.3694 53.5724 34.2121 53.8778 33.9926 54.1192C33.7731 54.3606 33.4805 54.5398 33.1148 54.6569C32.749 54.7739 32.2973 54.8324 31.7596 54.8324V53.7571C32.1839 53.7571 32.5167 53.6894 32.7581 53.5541C33.0032 53.4224 33.1751 53.2194 33.2739 52.9451C33.3763 52.6708 33.4275 52.3196 33.4275 51.8917V49.6971C33.4275 49.4118 33.4641 49.1521 33.5372 48.918C33.614 48.6839 33.753 48.4827 33.9542 48.3145C34.1554 48.1462 34.4407 48.0164 34.8101 47.9249C35.1832 47.8335 35.666 47.7878 36.2585 47.7878ZM31.7596 40.787C32.2973 40.787 32.749 40.8455 33.1148 40.9625C33.4805 41.0796 33.7731 41.2588 33.9926 41.5002C34.2121 41.7416 34.3694 42.047 34.4644 42.4165C34.5632 42.7859 34.6126 43.223 34.6126 43.7277V45.4834C34.6126 46.0833 34.7333 46.5112 34.9747 46.7673C35.2198 47.0233 35.6477 47.1513 36.2585 47.1513V47.8317C35.666 47.8317 35.1832 47.7859 34.8101 47.6945C34.4407 47.603 34.1554 47.4732 33.9542 47.3049C33.753 47.1367 33.614 46.9355 33.5372 46.7014C33.4641 46.4673 33.4275 46.2076 33.4275 45.9223V43.7277C33.4275 43.2998 33.3763 42.9487 33.2739 42.6743C33.1751 42.3964 33.0032 42.1915 32.7581 42.0598C32.5167 41.9282 32.1839 41.8623 31.7596 41.8623V40.787ZM36.2585 47.1513V48.4681H34.9637V47.1513H36.2585Z" fill="black"/>
<path d="M63.24 28.98H37.17V48.89H63.24V28.98Z" fill="#35BFB7" stroke="#010101" stroke-width="0.25"/>
<path d="M42.1094 39.1975V38.5725L47.1406 36.01V37.01L43.2813 38.8694L43.3125 38.8069V38.9631L43.2813 38.9006L47.1406 40.76V41.76L42.1094 39.1975ZM51.9229 33.635L49.3447 43.2131H48.501L51.0791 33.635H51.9229ZM58.3125 39.1975L53.2813 41.76V40.76L57.1406 38.9006L57.1094 38.9631V38.8069L57.1406 38.8694L53.2813 37.01V36.01L58.3125 38.5725V39.1975Z" fill="black"/>
<path d="M64.23 21.5L62.54 19.07L60.88 21.5H59L61.59 17.94L59.13 14.5H61L62.61 16.77L64.19 14.5H65.94L63.5 17.88L66.11 21.5H64.23Z" fill="#010101"/>
</svg>
