<svg width="80" height="80" viewBox="0 0 80 80" fill="none" xmlns="http://www.w3.org/2000/svg">
<path d="M37.9 22.4202H28.72V23.7502H37.9V22.4202Z" fill="white"/>
<path d="M37.77 22.55V23.63H28.84V22.55H37.77ZM38 22.3H28.59V23.88H38V22.3Z" fill="black"/>
<path d="M39.97 69.6699C56.4004 69.6699 69.72 56.3504 69.72 39.9199C69.72 23.4894 56.4004 10.1699 39.97 10.1699C23.5395 10.1699 10.22 23.4894 10.22 39.9199C10.22 56.3504 23.5395 69.6699 39.97 69.6699Z" fill="#00A198"/>
<path d="M18.6799 26.4199L14.8199 55.4999C14.8199 55.6799 15.0199 55.8099 15.1999 55.7099L17.6899 54.3599C17.8385 54.2779 18.0113 54.2509 18.1778 54.2838C18.3443 54.3168 18.4938 54.4075 18.5999 54.5399L21.7199 58.6499L22.9999 41.3599L18.6799 26.4199Z" fill="#D7F463" stroke="#010101" stroke-width="0.25"/>
<path d="M18.66 27.15L15.16 54.77C15.1613 54.8333 15.1797 54.8951 15.2134 54.9488C15.2471 55.0024 15.2947 55.046 15.3511 55.0747C15.4076 55.1035 15.4708 55.1163 15.534 55.112C15.5972 55.1076 15.658 55.0862 15.71 55.05L17.53 53.86C17.7249 53.7345 17.9594 53.6856 18.1883 53.7225C18.4172 53.7594 18.6243 53.8796 18.77 54.06L20.89 56.93C21 57.08 21.26 57 21.24 56.83L18.77 27.15C18.76 27.09 18.66 27.09 18.66 27.15Z" fill="#D7F463" stroke="#010101" stroke-width="0.25"/>
<path d="M18.0599 53.7099C18.1966 53.7131 18.331 53.7461 18.4536 53.8066C18.5762 53.867 18.6842 53.9535 18.7699 54.0599L20.8899 56.9299C20.9999 57.0799 21.2599 56.9999 21.2399 56.8299L20.9399 53.1899L17.9999 53.6999L18.0599 53.7099Z" fill="#D7F463" stroke="#010101" stroke-width="0.25"/>
<path d="M18.7599 26.3999L21.7199 58.6499L56.1699 52.8299L48.08 27.6799L18.7599 26.3999Z" fill="#010101" stroke="#010101" stroke-width="0.25" stroke-linecap="round" stroke-linejoin="round"/>
<path d="M20.3599 27.0999L22.3899 56.9399L54.7899 51.7299L47.9599 28.5399L20.3599 27.0999Z" fill="#D7F463" stroke="#010101" stroke-width="0.25"/>
<path d="M22.34 41.7801L23.88 55.9301L53.32 51.1901L50.59 40.5601L22.34 41.7801Z" fill="white" stroke="#010101" stroke-width="0.25" stroke-linecap="round" stroke-linejoin="round"/>
<path d="M28.02 55.2302L27.53 50.6802" stroke="#010101" stroke-width="0.25" stroke-linecap="round" stroke-linejoin="round"/>
<path d="M36.94 53.7602L36.39 50.7402" stroke="#010101" stroke-width="0.25" stroke-linecap="round" stroke-linejoin="round"/>
<path d="M45.5 52.4302L44.95 48.9102" stroke="#010101" stroke-width="0.25" stroke-linecap="round" stroke-linejoin="round"/>
<path d="M19.6099 26.77L47.8199 28.12C47.8199 28.12 50.5699 35.4 53.2999 39.52C54.0932 40.7106 55.1704 41.6851 56.4344 42.3555C57.6983 43.0258 59.1093 43.3711 60.5399 43.36C54.5516 46.2351 48.4127 48.7855 42.1499 51C37.077 52.6836 31.8306 53.7906 26.5099 54.3C26.5099 54.3 19.8899 46.29 19.6099 26.77Z" fill="#D7F463" stroke="#010101" stroke-width="0.25"/>
<path d="M22.84 25.47C22.32 25.47 21.94 25.89 21.84 26.53H22.38C22.46 26.15 22.63 25.92 22.86 25.92C23.09 25.92 23.45 26.31 23.45 26.92C23.45 27.53 23.14 27.87 22.86 27.87C22.7963 27.87 22.7353 27.8953 22.6903 27.9403C22.6453 27.9853 22.62 28.0463 22.62 28.11C22.62 28.1736 22.6453 28.2347 22.6903 28.2797C22.7353 28.3247 22.7963 28.35 22.86 28.35C23.0298 28.3314 23.1943 28.2792 23.3438 28.1966C23.4934 28.1139 23.625 28.0023 23.7311 27.8683C23.8371 27.7344 23.9155 27.5807 23.9617 27.4161C24.0078 27.2516 24.0208 27.0796 24 26.91C24.0208 26.7389 24.0071 26.5653 23.9597 26.3996C23.9123 26.2339 23.8321 26.0793 23.724 25.9451C23.6158 25.8108 23.4819 25.6996 23.3301 25.618C23.1782 25.5364 23.0116 25.4861 22.84 25.47Z" fill="white" stroke="#010101" stroke-width="0.25" stroke-miterlimit="10"/>
<path d="M27.4999 25.6799C26.9699 25.6799 26.5899 26.0899 26.4999 26.7399H27.0299C27.1199 26.3699 27.2799 26.1399 27.5199 26.1399C27.7599 26.1399 28.0999 26.5299 28.0999 27.0899C28.0999 27.6499 27.7899 28.0899 27.5199 28.0899C27.4526 28.0871 27.3868 28.1106 27.3365 28.1554C27.2861 28.2002 27.2551 28.2627 27.2499 28.3299C27.2525 28.3628 27.2615 28.3948 27.2764 28.4242C27.2914 28.4536 27.312 28.4797 27.3371 28.5011C27.3622 28.5225 27.3913 28.5387 27.4226 28.5488C27.454 28.5589 27.4871 28.5627 27.5199 28.5599C27.8575 28.5174 28.1645 28.3433 28.3743 28.0755C28.584 27.8076 28.6795 27.4678 28.6399 27.1299C28.6609 26.9598 28.6479 26.7872 28.6019 26.622C28.5558 26.4569 28.4776 26.3025 28.3716 26.1677C28.2657 26.033 28.1341 25.9205 27.9845 25.8368C27.8349 25.7531 27.6702 25.6997 27.4999 25.6799Z" fill="white" stroke="#010101" stroke-width="0.25" stroke-miterlimit="10"/>
<path d="M32.15 25.8899C31.63 25.8899 31.25 26.2999 31.15 26.9499H31.68C31.77 26.5799 31.93 26.3399 32.17 26.3399C32.41 26.3399 32.75 26.7399 32.75 27.3399C32.75 27.9399 32.45 28.3399 32.17 28.3399C32.1351 28.3327 32.099 28.3333 32.0643 28.3417C32.0297 28.3502 31.9974 28.3662 31.9697 28.3888C31.9421 28.4113 31.9198 28.4396 31.9045 28.4718C31.8892 28.504 31.8812 28.5392 31.8812 28.5749C31.8812 28.6105 31.8892 28.6458 31.9045 28.6779C31.9198 28.7101 31.9421 28.7385 31.9697 28.761C31.9974 28.7835 32.0297 28.7996 32.0643 28.8081C32.099 28.8165 32.1351 28.8171 32.17 28.8099C32.5075 28.7674 32.8145 28.5933 33.0243 28.3254C33.2341 28.0576 33.3296 27.7178 33.29 27.3799C33.3181 27.2065 33.3106 27.0292 33.2678 26.8588C33.2251 26.6885 33.1479 26.5286 33.0412 26.3891C32.9345 26.2496 32.8004 26.1334 32.6471 26.0475C32.4938 25.9617 32.3247 25.908 32.15 25.8899Z" fill="white" stroke="#010101" stroke-width="0.25" stroke-miterlimit="10"/>
<path d="M36.7999 26.0999C36.2799 26.0999 35.8999 26.5099 35.7999 27.0999H36.3399C36.4199 26.7299 36.5899 26.4899 36.8199 26.4899C37.0499 26.4899 37.4099 26.8799 37.4099 27.4899C37.4099 28.0999 37.0999 28.4399 36.8199 28.4399C36.7563 28.4399 36.6952 28.4651 36.6502 28.5101C36.6052 28.5552 36.5799 28.6162 36.5799 28.6799C36.5799 28.7435 36.6052 28.8045 36.6502 28.8496C36.6952 28.8946 36.7563 28.9199 36.8199 28.9199C37.1574 28.8773 37.4645 28.7032 37.6743 28.4354C37.884 28.1676 37.9795 27.8277 37.9399 27.4899C37.9681 27.1554 37.8648 26.8231 37.6519 26.5636C37.4391 26.304 37.1334 26.1377 36.7999 26.0999Z" fill="white" stroke="#010101" stroke-width="0.25" stroke-miterlimit="10"/>
<path d="M41.5399 26.28C41.0199 26.28 40.6399 26.69 40.5399 27.34H41.0799C41.1599 26.97 41.3199 26.73 41.5599 26.73C41.7999 26.73 42.1399 27.13 42.1399 27.73C42.1399 28.33 41.8399 28.73 41.5599 28.73C41.4926 28.7272 41.4268 28.7507 41.3764 28.7955C41.3261 28.8403 41.295 28.9028 41.2899 28.97C41.2924 29.0029 41.3014 29.0349 41.3164 29.0643C41.3314 29.0937 41.352 29.1198 41.3771 29.1412C41.4022 29.1626 41.4312 29.1788 41.4626 29.1889C41.494 29.199 41.5271 29.2028 41.5599 29.2C41.8974 29.1575 42.2045 28.9834 42.4143 28.7156C42.624 28.4477 42.7195 28.1079 42.6799 27.77C42.7081 27.5966 42.7006 27.4193 42.6578 27.249C42.615 27.0786 42.5379 26.9188 42.4311 26.7793C42.3244 26.6397 42.1903 26.5235 42.0371 26.4377C41.8838 26.3518 41.7146 26.2982 41.5399 26.28Z" fill="white" stroke="#010101" stroke-width="0.25" stroke-miterlimit="10"/>
<path d="M46.09 26.5C45.57 26.5 45.19 26.91 45.09 27.55H45.63C45.71 27.18 45.87 26.94 46.11 26.94C46.35 26.94 46.69 27.33 46.69 27.94C46.69 28.55 46.39 28.89 46.11 28.89C46.0463 28.89 45.9853 28.9153 45.9403 28.9603C45.8953 29.0053 45.87 29.0663 45.87 29.13C45.87 29.1937 45.8953 29.2547 45.9403 29.2997C45.9853 29.3447 46.0463 29.37 46.11 29.37C46.4475 29.3275 46.7545 29.1534 46.9643 28.8855C47.1741 28.6177 47.2696 28.2779 47.23 27.94C47.2522 27.7702 47.2402 27.5976 47.1946 27.4326C47.149 27.2675 47.0707 27.1132 46.9644 26.979C46.8581 26.8447 46.726 26.7331 46.5757 26.6508C46.4255 26.5686 46.2604 26.5173 46.09 26.5Z" fill="white" stroke="#010101" stroke-width="0.25" stroke-miterlimit="10"/>
<path d="M52.37 39.5299C50.5646 36.5807 48.9931 33.4946 47.67 30.2999L22.46 29.3999C22.46 45.8899 28.07 52.7099 28.07 52.7099C32.7741 52.2704 37.4135 51.3009 41.9 49.8199C49.01 47.4699 57.5 43.5199 57.5 43.5199C57.5 43.5199 54.78 43.1699 52.37 39.5299Z" fill="white" stroke="#010101" stroke-width="0.25" stroke-linecap="round" stroke-linejoin="round"/>
<path d="M47.67 30.2999L22.46 29.3999C22.46 31.0199 22.51 32.5499 22.61 33.9899L49.23 33.7699C48.54 32.3099 48 30.9999 47.67 30.2999Z" fill="#010101" stroke="#010101" stroke-width="0.25" stroke-linecap="round" stroke-linejoin="round"/>
<path d="M48.1099 35.2199L49.2999 35.1799" stroke="#010101" stroke-width="0.25" stroke-linecap="round" stroke-linejoin="round"/>
<path d="M44.6099 35.33L47.2199 35.25" stroke="#010101" stroke-width="0.25" stroke-linecap="round" stroke-linejoin="round"/>
<path d="M40.3699 35.4499L43.7199 35.3499" stroke="#010101" stroke-width="0.25" stroke-linecap="round" stroke-linejoin="round"/>
<path d="M36.0499 35.58L39.6299 35.47" stroke="#010101" stroke-width="0.25" stroke-linecap="round" stroke-linejoin="round"/>
<path d="M31.8799 35.7099L35.1599 35.6099" stroke="#010101" stroke-width="0.25" stroke-linecap="round" stroke-linejoin="round"/>
<path d="M27.4899 35.84L30.7699 35.74" stroke="#010101" stroke-width="0.25" stroke-linecap="round" stroke-linejoin="round"/>
<path d="M23.6199 35.9599L26.6699 35.8599" stroke="#010101" stroke-width="0.25" stroke-linecap="round" stroke-linejoin="round"/>
<path d="M23.1199 38.5L50.8599 37" stroke="#010101" stroke-width="0.25" stroke-linecap="round" stroke-linejoin="round"/>
<path d="M27.5099 38.29C28.151 43.2423 29.972 47.9682 32.8199 52.07" stroke="#010101" stroke-width="0.25" stroke-linecap="round" stroke-linejoin="round"/>
<path d="M35.9999 37.8101C36.4386 42.4209 38.6902 46.6689 42.2599 49.6201" stroke="#010101" stroke-width="0.25" stroke-linecap="round" stroke-linejoin="round"/>
<path d="M44.6299 37.3401C44.9025 39.2313 45.6227 41.0301 46.7307 42.5868C47.8386 44.1435 49.3023 45.4132 50.9999 46.2901" stroke="#010101" stroke-width="0.25" stroke-linecap="round" stroke-linejoin="round"/>
<path d="M23.7299 41.8699L52.0599 39.1099" stroke="#010101" stroke-width="0.25" stroke-linecap="round" stroke-linejoin="round"/>
<path d="M25.5399 47.94C25.5399 47.94 31.4299 48.53 54.5399 42.03" stroke="#010101" stroke-width="0.25" stroke-linecap="round" stroke-linejoin="round"/>
<path d="M33.18 45.0598L24.41 43.7898L27.76 20.5698C28.03 18.6898 30.25 15.6398 32.68 15.9898C35.1 16.3398 36.8 19.9898 36.53 21.8298L33.18 45.0598Z" fill="#EB1E31" stroke="#010101" stroke-width="0.25"/>
<path d="M56.07 48.2198L47.3 46.9998L50.64 23.7798C50.91 21.8998 53.14 18.8498 55.56 19.1898C57.98 19.5398 59.68 23.1898 59.41 25.0398L56.07 48.2198Z" fill="#EB1E31" stroke="#010101" stroke-width="0.25"/>
<path d="M40.9591 24.0354L37.6433 23.5576L35.4611 38.7012L38.7768 39.179L40.9591 24.0354Z" fill="#D7F463" stroke="#010101" stroke-width="0.25"/>
<path d="M26.78 48.1099C26.78 48.1099 23.78 50.7899 27.23 53.8999C27.23 53.8999 31.39 52.5899 29.6 48.4899L26.78 48.1099Z" fill="#EB1E31" stroke="#010101" stroke-width="0.25"/>
<path d="M49.87 50.9998C49.87 50.9998 46.87 53.6798 50.31 56.7798C50.31 56.7798 54.48 55.4798 52.69 51.3698L49.87 50.9998Z" fill="#EB1E31" stroke="#010101" stroke-width="0.25"/>
<path d="M53.26 52.0097L49.11 51.4197L49.83 49.2397L53.09 49.7297L53.26 52.0097Z" fill="#D7F463" stroke="#010101" stroke-width="0.25"/>
<path d="M30.23 48.7998L26.09 48.1998L26.81 46.0198L30.06 46.6198L30.23 48.7998Z" fill="#D7F463" stroke="#010101" stroke-width="0.25"/>
<path d="M49.0904 25.2637L45.7747 24.7859L43.5967 39.8998L46.9125 40.3776L49.0904 25.2637Z" fill="#D7F463" stroke="#010101" stroke-width="0.25"/>
<path d="M46.5618 29.7761L38.6238 28.6322C36.809 28.3707 35.1258 29.6299 34.8642 31.4447L33.5221 40.7585C33.2606 42.5734 34.5198 44.2566 36.3346 44.5181L44.2726 45.662C46.0875 45.9235 47.7707 44.6643 48.0322 42.8495L49.3744 33.5357C49.6359 31.7208 48.3767 30.0376 46.5618 29.7761Z" fill="#D7F463" stroke="#010101" stroke-width="0.25"/>
<path d="M26.94 25.7498L35.67 27.0698" stroke="black" stroke-width="0.25" stroke-miterlimit="10"/>
<path d="M49.81 29.3599L58.68 30.6599" stroke="black" stroke-width="0.25" stroke-miterlimit="10"/>
<path d="M39.9756 34.3509L38.3127 34.1113L37.5982 39.0701L39.261 39.3097L39.9756 34.3509Z" fill="#EB1E31" stroke="#010101" stroke-width="0.25"/>
<path d="M45.4898 35.0355L43.8264 34.8003L43.1248 39.7609L44.7883 39.9962L45.4898 35.0355Z" fill="#EB1E31" stroke="#010101" stroke-width="0.249962"/>
<path d="M40 38L37.32 37.61C37.2579 37.6016 37.1983 37.5804 37.1449 37.5477C37.0916 37.5149 37.0456 37.4714 37.01 37.4199C36.9708 37.3695 36.9426 37.3114 36.9271 37.2494C36.9116 37.1874 36.9092 37.1229 36.92 37.06L37 35.83C37.0169 35.7151 37.0748 35.6103 37.1631 35.5349C37.2513 35.4596 37.3639 35.4187 37.48 35.4199L40.23 35.81C40.2934 35.8182 40.3546 35.8393 40.4096 35.8719C40.4646 35.9046 40.5124 35.9482 40.55 36C40.6235 36.1009 40.6557 36.2261 40.64 36.3499L40.46 37.59C40.4418 37.7006 40.3862 37.8017 40.3025 37.8763C40.2188 37.9509 40.112 37.9946 40 38Z" fill="white"/>
<path d="M37.52 35.5398L40.2 35.9298C40.2472 35.9358 40.2926 35.9514 40.3335 35.9756C40.3745 35.9997 40.4101 36.032 40.4381 36.0703C40.4662 36.1087 40.4862 36.1524 40.4968 36.1987C40.5075 36.2451 40.5085 36.2931 40.5 36.3398L40.33 37.5698C40.3159 37.6555 40.2721 37.7336 40.2063 37.7902C40.1405 37.8469 40.0569 37.8786 39.97 37.8798H40L37.32 37.4998C37.2291 37.4819 37.1476 37.4323 37.09 37.3598C37.0323 37.2824 37.0072 37.1855 37.02 37.0898L37.2 35.8598C37.2099 35.7741 37.251 35.695 37.3156 35.6378C37.3802 35.5806 37.4637 35.5493 37.55 35.5498L37.52 35.5398ZM37.55 35.2998C37.4038 35.2985 37.2622 35.3506 37.1517 35.4464C37.0412 35.5421 36.9695 35.6749 36.95 35.8198L36.77 37.0598C36.7573 37.1389 36.7609 37.2197 36.7805 37.2974C36.8001 37.3751 36.8352 37.4479 36.8839 37.5116C36.9326 37.5752 36.9936 37.6282 37.0635 37.6675C37.1333 37.7067 37.2104 37.7313 37.29 37.7398L39.97 38.1298H40C40.1462 38.1311 40.2878 38.079 40.3983 37.9833C40.5088 37.8875 40.5805 37.7547 40.6 37.6098L40.78 36.3698C40.803 36.2108 40.7623 36.0492 40.6668 35.92C40.5713 35.7908 40.4287 35.7045 40.27 35.6798L37.59 35.2998H37.55Z" fill="black"/>
<path d="M45.3999 38.7997L42.7199 38.4097C42.6565 38.4015 42.5954 38.3804 42.5403 38.3478C42.4853 38.3151 42.4375 38.2715 42.3999 38.2197C42.3616 38.1708 42.3337 38.1144 42.3183 38.0542C42.3028 37.9939 42.2999 37.9311 42.3099 37.8697L42.4899 36.6297C42.5046 36.5158 42.5605 36.4111 42.6471 36.3355C42.7337 36.26 42.845 36.2188 42.9599 36.2197L45.7099 36.6097C45.7734 36.618 45.8345 36.639 45.8895 36.6717C45.9446 36.7044 45.9923 36.748 46.0299 36.7997C46.0691 36.8502 46.0973 36.9083 46.1128 36.9703C46.1283 37.0322 46.1308 37.0968 46.1199 37.1597L45.9399 38.3897C45.923 38.5046 45.8651 38.6094 45.7768 38.6847C45.6886 38.7601 45.576 38.801 45.4599 38.7997H45.3999Z" fill="white"/>
<path d="M42.9999 36.3398L45.6799 36.7198C45.7747 36.7347 45.8599 36.7857 45.9178 36.8622C45.9756 36.9387 46.0015 37.0346 45.9899 37.1298L45.8099 38.3598C45.7981 38.4447 45.7563 38.5226 45.6921 38.5794C45.628 38.6362 45.5456 38.6683 45.4599 38.6698H45.3999L42.7199 38.2798C42.6739 38.274 42.6297 38.2585 42.59 38.2344C42.5504 38.2102 42.5163 38.178 42.4899 38.1398C42.4323 38.0624 42.4072 37.9655 42.4199 37.8698L42.5999 36.6398C42.6118 36.555 42.6536 36.4771 42.7178 36.4203C42.7819 36.3635 42.8643 36.3314 42.9499 36.3298L42.9999 36.3398ZM42.9499 36.0798C42.8049 36.0826 42.6654 36.1362 42.5558 36.2312C42.4462 36.3262 42.3733 36.4567 42.3499 36.5998L42.1699 37.8398C42.1498 37.9999 42.1929 38.1615 42.29 38.2903C42.3871 38.4192 42.5305 38.5051 42.6899 38.5298L45.3699 38.9098H45.4599C45.605 38.907 45.7445 38.8535 45.8541 38.7585C45.9637 38.6635 46.0366 38.533 46.0599 38.3898L46.2299 37.1498C46.2529 36.9908 46.2123 36.8292 46.1168 36.7C46.0213 36.5708 45.8787 36.4845 45.7199 36.4598L43.0399 36.0798H42.9499Z" fill="black"/>
<path d="M34.72 33.5999L49.21 35.6699" stroke="black" stroke-width="0.25" stroke-miterlimit="10"/>
<path d="M31.7032 44.8373L25.9031 44.0015L25.5693 46.3175L31.3694 47.1533L31.7032 44.8373Z" fill="#EB1E31" stroke="#010101" stroke-width="0.25"/>
<path d="M54.6097 48.0519L48.8096 47.2161L48.4758 49.5321L54.2759 50.3679L54.6097 48.0519Z" fill="#EB1E31" stroke="#010101" stroke-width="0.25"/>
<path d="M56.88 10H65.42C67.5417 10 69.5766 10.8429 71.0769 12.3431C72.5772 13.8434 73.42 15.8783 73.42 18C73.42 20.1217 72.5772 22.1566 71.0769 23.6569C69.5766 25.1571 67.5417 26 65.42 26H56.88C54.7583 26 52.7234 25.1571 51.2232 23.6569C49.7229 22.1566 48.88 20.1217 48.88 18C48.88 15.8783 49.7229 13.8434 51.2232 12.3431C52.7234 10.8429 54.7583 10 56.88 10Z" fill="#FF6B0A"/>
<path d="M59.88 14.8899L56.88 21.8899H55.28L52.28 14.8899H54.03L56.16 19.8899L58.32 14.8899H59.88ZM60.46 14.8899H62.08V21.8899H60.43L60.46 14.8899ZM63.74 14.8899H65.36V21.8899H63.71L63.74 14.8899ZM67.02 14.8899H68.64V21.8899H66.99L67.02 14.8899Z" fill="#010101"/>
<path d="M41.03 48.1199H39.56C39.317 48.1199 39.12 48.3169 39.12 48.5599V49.8199C39.12 50.0629 39.317 50.2599 39.56 50.2599H41.03C41.273 50.2599 41.47 50.0629 41.47 49.8199V48.5599C41.47 48.3169 41.273 48.1199 41.03 48.1199Z" fill="#EB1E31" stroke="#010101" stroke-width="0.25"/>
<path d="M40.19 64.5399C44.2327 64.5399 47.51 61.2626 47.51 57.2199C47.51 53.1772 44.2327 49.8999 40.19 49.8999C36.1473 49.8999 32.87 53.1772 32.87 57.2199C32.87 61.2626 36.1473 64.5399 40.19 64.5399Z" fill="#EB1E31" stroke="#010101" stroke-width="0.25"/>
<path d="M40.1 63.03C43.2259 63.03 45.76 60.4959 45.76 57.37C45.76 54.244 43.2259 51.71 40.1 51.71C36.9741 51.71 34.44 54.244 34.44 57.37C34.44 60.4959 36.9741 63.03 40.1 63.03Z" fill="white" stroke="#010101" stroke-width="0.25" stroke-miterlimit="10"/>
<path d="M40.48 52.0398H40.03V53.2498H40.48V52.0398Z" fill="#010101"/>
<path d="M40.46 61.5098H40.01V62.7198H40.46V61.5098Z" fill="#010101"/>
<path d="M45.4 57.7098V57.2598H44.19V57.7098H45.4Z" fill="#010101"/>
<path d="M36.07 57.7098V57.2598H34.86V57.7098H36.07Z" fill="#010101"/>
<path d="M40.3 58.1198C40.5872 58.1198 40.82 57.887 40.82 57.5998C40.82 57.3126 40.5872 57.0798 40.3 57.0798C40.0128 57.0798 39.78 57.3126 39.78 57.5998C39.78 57.887 40.0128 58.1198 40.3 58.1198Z" fill="white" stroke="#010101" stroke-width="0.25" stroke-miterlimit="10"/>
<path d="M41.7293 53.8726L41.4761 53.7791L40.2872 56.9964L40.5405 57.09L41.7293 53.8726Z" stroke="#010101" stroke-width="0.25" stroke-miterlimit="10"/>
<path d="M42.6707 58.9244L42.7878 58.6812L40.8144 57.7314L40.6973 57.9747L42.6707 58.9244Z" stroke="#010101" stroke-width="0.25" stroke-miterlimit="10"/>
<path d="M36.2256 23.7354L27.4863 22.4729L27.3061 23.72L36.0454 24.9824L36.2256 23.7354Z" fill="white" stroke="black" stroke-width="0.25" stroke-miterlimit="10"/>
<path d="M59.0473 27.192L50.3155 26.0454L50.1517 27.2928L58.8835 28.4394L59.0473 27.192Z" fill="white" stroke="black" stroke-width="0.249625" stroke-miterlimit="10"/>
</svg>
